<svg width="36" height="36" viewBox="0 0 36 36" fill="none" xmlns="http://www.w3.org/2000/svg">
<path d="M30.65 14.4602L27.5154 8.47599C27.304 8.07234 26.8867 7.81864 26.431 7.81671L19.7914 7.7885L14.4553 7.76734C13.5286 7.7637 12.9309 8.74729 13.3609 9.56819L14.399 11.5496L15.8935 14.4017L19.028 20.3857C19.2394 20.7894 19.6569 21.0431 20.1127 21.0449L26.7172 21.0713H26.75L32.086 21.0939C33.0127 21.0979 33.6108 20.1144 33.1808 19.2933L30.65 14.4602Z" fill="#6D31ED"/>
<path d="M26.675 24.8412C27.6018 24.8452 28.1998 23.8616 27.7699 23.0407L26.7315 21.0575L25.237 18.2075L22.1024 12.2233C21.891 11.8196 21.4737 11.5659 21.0181 11.564L14.4133 11.5358H14.3805L9.04517 11.5147C8.11828 11.511 7.5205 12.495 7.95096 13.3158L8.97986 15.278L10.4825 18.1469L13.6171 24.1311C13.8286 24.5347 14.2458 24.7884 14.7015 24.7904L21.3391 24.8185H21.3411L26.675 24.8412Z" fill="#15ABFF"/>
<path d="M21.3508 24.8192L19.8481 21.9504L16.7136 15.9662C16.5021 15.5625 16.0849 15.3089 15.6292 15.3069L8.99163 15.2787H8.98958L3.65502 15.2576C2.72843 15.2539 2.13066 16.2373 2.5605 17.0582L5.09167 21.8919L8.22612 27.8759C8.4376 28.2797 8.85502 28.5334 9.31082 28.5352L15.9481 28.5615L21.2845 28.5827C22.2111 28.5863 22.8089 27.6028 22.3789 26.7819L21.3508 24.8192Z" fill="#FF56A5"/>
<path fill-rule="evenodd" clip-rule="evenodd" d="M21.3388 24.819L19.8361 21.9501L16.7015 15.9659C16.4901 15.5622 16.0729 15.3086 15.6172 15.3066L8.97963 15.2784H8.97758L10.4802 18.1473L13.6148 24.1315C13.8262 24.5352 14.2435 24.7888 14.6992 24.7908L21.3367 24.819H21.3388Z" fill="#C8005D"/>
<path fill-rule="evenodd" clip-rule="evenodd" d="M26.7171 21.0593L25.2226 18.2093L22.0881 12.225C21.8766 11.8214 21.4594 11.5677 21.0037 11.5658L14.3989 11.5376L15.8934 14.3897L19.0279 20.3737C19.2393 20.7775 19.6568 21.0312 20.1125 21.033L26.7171 21.0593Z" fill="#3F0EA6" fill-opacity="0.5"/>
</svg>
